<?xml version="1.0" ?><svg viewBox="0 0 64 64" xmlns="http://www.w3.org/2000/svg"><path d="M3,41H61a0,0,0,0,1,0,0V57a4,4,0,0,1-4,4H7a4,4,0,0,1-4-4V41A0,0,0,0,1,3,41Z" style="fill:#42a5b2"/><polygon points="51 21 13 21 3 41 61 41 51 21" style="fill:#62c4c3"/><rect height="6" rx="2" style="fill:#4f5559" width="32" x="16" y="27"/><path d="M20,33V3H31.586A3.415,3.415,0,0,1,34,4h0a3.415,3.415,0,0,0,2.414,1H44V33Z" style="fill:#f2daae"/><ellipse cx="32" cy="51" rx="8" ry="5" style="fill:#efbc2e"/><path d="M44,18.659c-4.842,6-13.649,10.278-24,11.164V33H44Z" style="fill:#e0c494"/><path d="M61.885,40.557l.01,0-10-20A1,1,0,0,0,51,20H45V5a1,1,0,0,0-1-1H36.414a2.394,2.394,0,0,1-1.706-.707A4.385,4.385,0,0,0,31.586,2H20a1,1,0,0,0-1,1V20H13a1,1,0,0,0-.895.553l-10,20,.01,0A.978.978,0,0,0,2,41V57a5.006,5.006,0,0,0,5,5H57a5.006,5.006,0,0,0,5-5V41A.978.978,0,0,0,61.885,40.557ZM45,28h1a1,1,0,0,1,1,1v2a1,1,0,0,1-1,1H45ZM31.586,4a2.394,2.394,0,0,1,1.706.707A4.385,4.385,0,0,0,36.414,6H43V32H21V4ZM19,32H18a1,1,0,0,1-1-1V29a1,1,0,0,1,1-1h1ZM13.618,22H19v4H18a3,3,0,0,0-3,3v2a3,3,0,0,0,3,3H46a3,3,0,0,0,3-3V29a3,3,0,0,0-3-3H45V22h5.382l9,18H4.618ZM60,57a3,3,0,0,1-3,3H7a3,3,0,0,1-3-3V42H60Z" style="fill:#3a4249"/><path d="M32,57c5.047,0,9-2.636,9-6s-3.953-6-9-6-9,2.636-9,6S26.953,57,32,57Zm0-10c3.794,0,7,1.832,7,4s-3.206,4-7,4-7-1.832-7-4S28.206,47,32,47Z" style="fill:#3a4249"/><rect height="2" style="fill:#3a4249" width="2" x="56" y="44"/><rect height="2" style="fill:#3a4249" width="2" x="52" y="44"/><rect height="2" style="fill:#3a4249" width="2" x="48" y="44"/></svg>